PathFileType	4	(X/Y/Z)	/Users/itak/Documents/Research/Walk-IL/dataset/trc/00411_00012.trc
DataRate	CameraRate	NumFrames	NumMarkers	Units	OrigDataRate	OrigDataStartFrame	OrigNumFrames
100.000000	100.000000	4	53	mm	100.000000	152	608
Frame#	Time	RPSI			LPSI			L3			STRN			T10			C7			CLAV			RBAK			LBAK			LSHO			LUPA			LAEL			LAOL			LWTS			LWPS			LFRA			LIFD			LHPS			RSHO			RUPA			RAEL			RAOL			RWTS			RWPS			RFRA			RIFD			RHPS			RBHD			LFHD			RFHD			LBHD			LHIP			RHIP			RASI			LASI			LKNE			LTHI			LANK			LTIP			LTOE			LMT5			LHEE			RKNE			RTHI			RANK			RTIP			RTOE			RMT1			RMT5			RHEE			LHTS			RHTS			LMT1			
		X1	Y1	Z1	X2	Y2	Z2	X3	Y3	Z3	X4	Y4	Z4	X5	Y5	Z5	X6	Y6	Z6	X7	Y7	Z7	X8	Y8	Z8	X9	Y9	Z9	X10	Y10	Z10	X11	Y11	Z11	X12	Y12	Z12	X13	Y13	Z13	X14	Y14	Z14	X15	Y15	Z15	X16	Y16	Z16	X17	Y17	Z17	X18	Y18	Z18	X19	Y19	Z19	X20	Y20	Z20	X21	Y21	Z21	X22	Y22	Z22	X23	Y23	Z23	X24	Y24	Z24	X25	Y25	Z25	X26	Y26	Z26	X27	Y27	Z27	X28	Y28	Z28	X29	Y29	Z29	X30	Y30	Z30	X31	Y31	Z31	X32	Y32	Z32	X33	Y33	Z33	X34	Y34	Z34	X35	Y35	Z35	X36	Y36	Z36	X37	Y37	Z37	X38	Y38	Z38	X39	Y39	Z39	X40	Y40	Z40	X41	Y41	Z41	X42	Y42	Z42	X43	Y43	Z43	X44	Y44	Z44	X45	Y45	Z45	X46	Y46	Z46	X47	Y47	Z47	X48	Y48	Z48	X49	Y49	Z49	X50	Y50	Z50	X51	Y51	Z51	X52	Y52	Z52	X53	Y53	Z53	

153	1.52	-879.8206176757812	991.613037109375	650.341064453125	-877.4258422851562	983.6127319335938	519.5703735351562	-880.03271484375	1058.440795898438	585.6434936523438	-645.3450927734375	1215.536987304688	604.6300659179688	-889.3413696289062	1162.408203125	581.6860961914062	-855.8067626953125	1411.729736328125	574.2567749023438	-699.1480102539062	1333.724487304688	598.2255859375	-901.9896850585938	1264.418579101562	637.7349243164062	-855.9625244140625	1374.359252929688	468.0076293945312	-761.1553955078125	1389.30126953125	429.5304565429688	-767.0391235351562	1271.889770507812	356.5062866210938	-730.2623901367188	1074.35791015625	343.0837707519531	-800.0342407226562	1051.8603515625	384.9910888671875	-647.7333984375	865.5435180664062	424.4335021972656	-670.2658081054688	848.5145263671875	347.0237731933594	-704.7130737304688	970.56982421875	342.99609375	-638.3619995117188	685.5487060546875	428.931884765625	-655.6329956054688	763.4842529296875	364.0763854980469	-811.5036010742188	1389.406860351562	739.67919921875	-826.7479248046875	1323.241333007812	798.0733642578125	-804.5007934570312	1059.703491210938	835.1985473632812	-825.2862548828125	1052.050170898438	744.2338256835938	-668.9625854492188	849.6000366210938	797.3082275390625	-705.538818359375	836.2706298828125	858.5628662109375	-775.2369995117188	995.25244140625	848.8587036132812	-661.882568359375	677.0533447265625	798.3385009765625	-696.7877197265625	747.4382934570312	857.7969360351562	-829.3576049804688	1598.82080078125	669.3074340820312	-671.6158447265625	1607.809204101562	547.59619140625	-696.09912109375	1609.918701171875	667.7012329101562	-814.326904296875	1594.078369140625	505.9311828613281	-782.0352172851562	969.7527465820312	411.1731872558594	-803.1492919921875	969.4348754882812	769.369873046875	-666.4058227539062	974.1807861328125	720.3750610351562	-672.5610961914062	967.204345703125	456.6787719726562	-747.09326171875	476.4400939941406	429.7854919433594	-752.7555541992188	618.6123046875	418.5881042480469	-840.6151733398438	39.57947540283203	467.8031616210938	-797.5706176757812	245.4564666748047	436.7945556640625	-630.2425537109375	45.56314086914062	540.2007446289062	-711.9371337890625	40.66609954833984	461.1527404785156	-879.5872192382812	38.37662887573242	524.4044799804688	-765.0844116210938	477.7315368652344	753.622802734375	-723.4527587890625	740.850341796875	774.4613647460938	-815.0621948242188	55.64008331298828	721.55224609375	-756.319091796875	351.1855163574219	740.1553955078125	-630.9300537109375	40.26540374755859	670.3275756835938	-705.2554931640625	44.44612121582031	635.4857788085938	-731.4553833007812	45.69474792480469	732.55908203125	-884.3050537109375	43.55864334106445	663.6790161132812	-619.989990234375	769.5729370117188	416.5900573730469	-644.406982421875	745.6461181640625	815.6071166992188	-710.5062255859375	44.42189025878906	567.2754516601562	
154	1.53	-879.7068481445312	991.5623779296875	650.3223266601562	-877.32958984375	983.5949096679688	519.5607299804688	-879.8775634765625	1058.3779296875	585.683837890625	-645.2672729492188	1215.528076171875	604.6104125976562	-889.19140625	1162.356079101562	581.7449340820312	-855.7537841796875	1411.704345703125	574.1981201171875	-699.0932006835938	1333.680419921875	598.20458984375	-901.89453125	1264.3701171875	637.6410522460938	-855.8527221679688	1374.331298828125	467.9523620605469	-761.0393676757812	1389.286865234375	429.4733276367188	-766.8090209960938	1271.86083984375	356.4949645996094	-730.0941162109375	1074.335693359375	343.0906372070312	-799.8699340820312	1051.821411132812	384.9509582519531	-647.7028198242188	865.4508666992188	424.4847717285156	-670.1641845703125	848.4658203125	347.0453491210938	-704.5677490234375	970.5382080078125	343.0209350585938	-638.3385620117188	685.4723510742188	428.9137268066406	-655.5841064453125	763.4549560546875	364.0725708007812	-811.452880859375	1389.34228515625	739.6382446289062	-826.7325439453125	1323.1962890625	798.0104370117188	-804.4601440429688	1059.691650390625	835.1898193359375	-825.0850219726562	1051.98583984375	744.2554321289062	-668.6389770507812	849.6992797851562	797.5765380859375	-705.3882446289062	836.3646240234375	858.7438354492188	-775.2067260742188	995.2503051757812	848.9019775390625	-661.41845703125	677.1412963867188	798.6475830078125	-696.5012817382812	747.4957275390625	857.963623046875	-829.1478881835938	1598.812255859375	669.27880859375	-671.4824829101562	1607.741088867188	547.5224609375	-695.9612426757812	1609.872314453125	667.6536254882812	-814.1394653320312	1594.059936523438	505.8877563476562	-781.9351806640625	969.7329711914062	411.1959228515625	-802.8245239257812	969.3848266601562	769.4428100585938	-666.1620483398438	974.1896362304688	720.3839111328125	-672.496826171875	967.1976318359375	456.6633911132812	-746.9259033203125	476.4237976074219	429.8216247558594	-752.602294921875	618.5966796875	418.6159057617188	-840.6231689453125	39.58458709716797	467.8019104003906	-797.443115234375	245.4259948730469	436.8284606933594	-630.2479248046875	45.56296920776367	540.208251953125	-711.9426879882812	40.67763900756836	461.1588439941406	-879.5927734375	38.37299346923828	524.41015625	-764.7103271484375	477.7056884765625	753.4951782226562	-723.2029418945312	740.7064819335938	774.2991333007812	-815.0474243164062	55.6495246887207	721.5294189453125	-755.9678344726562	351.16015625	740.003173828125	-630.9052124023438	40.2667350769043	670.3115234375	-705.2283325195312	44.39837265014648	635.4360961914062	-731.4671020507812	45.69681930541992	732.4921264648438	-884.2616577148438	43.51257705688477	663.6660766601562	-619.8880615234375	769.5286865234375	416.6405334472656	-644.0148315429688	745.843505859375	815.8972778320312	-710.5120239257812	44.41070938110352	567.2874755859375	
155	1.54	-879.6061401367188	991.52294921875	650.34326171875	-877.23876953125	983.5763549804688	519.5641479492188	-879.7185668945312	1058.315673828125	585.7218017578125	-645.1578369140625	1215.514770507812	604.5936279296875	-889.0400390625	1162.30419921875	581.8036499023438	-855.6965942382812	1411.687866210938	574.1389770507812	-699.0316162109375	1333.63525390625	598.1853637695312	-901.7884521484375	1264.327026367188	637.5548095703125	-855.7252807617188	1374.303344726562	467.8990783691406	-760.90869140625	1389.272583007812	429.4169006347656	-766.5626220703125	1271.829711914062	356.4831848144531	-729.8907470703125	1074.311279296875	343.1113586425781	-799.6596069335938	1051.777465820312	384.9238586425781	-647.6654663085938	865.3463745117188	424.5661010742188	-670.037353515625	848.4125366210938	347.0904235839844	-704.4092407226562	970.5045166015625	343.0554504394531	-638.3109130859375	685.3894653320312	428.9251708984375	-655.52587890625	763.4217529296875	364.0876159667969	-811.3902587890625	1389.278686523438	739.602783203125	-826.7022705078125	1323.161376953125	797.9545288085938	-804.3981323242188	1059.69140625	835.204345703125	-824.8764038085938	1051.908325195312	744.2998657226562	-668.30908203125	849.8217163085938	797.8577270507812	-705.2208862304688	836.4691162109375	858.935791015625	-775.1456298828125	995.2546997070312	848.9673461914062	-660.9072875976562	677.2447509765625	798.9675903320312	-696.1824340820312	747.576416015625	858.1392211914062	-828.9356689453125	1598.803955078125	669.271240234375	-671.3202514648438	1607.67138671875	547.4567260742188	-695.8095703125	1609.831909179688	667.6185913085938	-813.937255859375	1594.0380859375	505.8405151367188	-781.8295288085938	969.7118530273438	411.2220153808594	-802.47802734375	969.330810546875	769.5366821289062	-665.9351196289062	974.2002563476562	720.3900146484375	-672.41455078125	967.189208984375	456.6544189453125	-746.7494506835938	476.40625	429.860595703125	-752.4471435546875	618.5806884765625	418.6431579589844	-840.6460571289062	39.59532165527344	467.7878112792969	-797.3148193359375	245.3954620361328	436.8617553710938	-630.253173828125	45.56345367431641	540.2145385742188	-711.94921875	40.69043731689453	461.1626281738281	-879.5970458984375	38.37152099609375	524.413818359375	-764.3453979492188	477.6882629394531	753.3896484375	-722.9330444335938	740.5631713867188	774.1395874023438	-815.0314331054688	55.65982818603516	721.5077514648438	-755.6285400390625	351.1395263671875	739.8817138671875	-630.887939453125	40.26712799072266	670.2945556640625	-705.1953735351562	44.35406494140625	635.3820190429688	-731.4798583984375	45.69940948486328	732.4287719726562	-884.2218017578125	43.4686279296875	663.6465454101562	-619.7838134765625	769.48583984375	416.7149353027344	-643.54443359375	746.0584716796875	816.2135620117188	-710.5166015625	44.40262222290039	567.298583984375	
156	1.55	-879.5076293945312	991.4890747070312	650.4028930664062	-877.1478881835938	983.5527954101562	519.5844116210938	-879.560791015625	1058.259399414062	585.7529296875	-645.0087280273438	1215.497680664062	604.5812377929688	-888.8898315429688	1162.253540039062	581.8591918945312	-855.634033203125	1411.679809570312	574.0791015625	-698.9650268554688	1333.591430664062	598.1685791015625	-901.6714477539062	1264.288940429688	637.4829711914062	-855.5776977539062	1374.274536132812	467.8474426269531	-760.7620849609375	1389.257080078125	429.3627319335938	-766.3092651367188	1271.796508789062	356.469970703125	-729.6526489257812	1074.2841796875	343.1472778320312	-799.4053344726562	1051.728759765625	384.9129333496094	-647.6194458007812	865.2326049804688	424.6790771484375	-669.8840942382812	848.3541870117188	347.1618347167969	-704.2394409179688	970.46923828125	343.099365234375	-638.2857666015625	685.302490234375	428.9674682617188	-655.4545288085938	763.3833618164062	364.1278381347656	-811.3163452148438	1389.218505859375	739.5731811523438	-826.6558837890625	1323.1376953125	797.9066772460938	-804.3110961914062	1059.70166015625	835.240478515625	-824.6808471679688	1051.82177734375	744.3603515625	-667.9595336914062	849.9718017578125	798.154296875	-705.02587890625	836.5867309570312	859.1411743164062	-775.0516357421875	995.26904296875	849.0576782226562	-660.3773193359375	677.3679809570312	799.2840576171875	-695.8316040039062	747.6793212890625	858.32470703125	-828.715576171875	1598.7958984375	669.2804565429688	-671.1233520507812	1607.59814453125	547.3989868164062	-695.6324462890625	1609.80126953125	667.5925903320312	-813.718994140625	1594.007446289062	505.7848815917969	-781.7146606445312	969.6891479492188	411.2525329589844	-802.1292114257812	969.2783203125	769.6451416015625	-665.7284545898438	974.2108154296875	720.394775390625	-672.304443359375	967.1790161132812	456.6521911621094	-746.56640625	476.3880615234375	429.9012451171875	-752.2902221679688	618.5645751953125	418.6690673828125	-840.681640625	39.61009979248047	467.761962890625	-797.19091796875	245.3671112060547	436.8917846679688	-630.258544921875	45.56499099731445	540.2191772460938	-711.9544067382812	40.70242691040039	461.1642761230469	-879.5999145507812	38.37115859985352	524.4156494140625	-763.9987182617188	477.6810913085938	753.3111572265625	-722.6515502929688	740.4307250976562	773.9926147460938	-815.0155639648438	55.67018127441406	721.4873657226562	-755.3040771484375	351.1203002929688	739.791015625	-630.8782348632812	40.26732635498047	670.27734375	-705.1552124023438	44.31812286376953	635.3252563476562	-731.4937133789062	45.70312881469727	732.3717041015625	-884.1957397460938	43.43562316894531	663.6165161132812	-619.6825561523438	769.444580078125	416.8117370605469	-643.0015258789062	746.2833862304688	816.5512084960938	-710.52001953125	44.39728546142578	567.3074340820312	
